<?xml version="1.0" encoding="UTF-8" standalone="no"?>
<!DOCTYPE svg PUBLIC "-//W3C//DTD SVG 1.1//EN" "http://www.w3.org/Graphics/SVG/1.1/DTD/svg11.dtd">
<svg width="100%" height="100%" viewBox="0 0 1080 1080" version="1.1" xmlns="http://www.w3.org/2000/svg" xmlns:xlink="http://www.w3.org/1999/xlink" xml:space="preserve" xmlns:serif="http://www.serif.com/" style="fill-rule:evenodd;clip-rule:evenodd;stroke-linejoin:round;stroke-miterlimit:2;">
    <path d="M540,0L1007.654,270L1007.654,810L540,1080L72.346,810L72.346,270L540,0ZM505.5,99.919L175.386,290.51L339.931,385.51L505.5,289.919L505.5,99.919ZM938.372,729.04L938.372,310L574.5,99.919L574.5,289.919L773.827,405L773.827,634.04L938.372,729.04ZM375.173,904.837L540,1000L904.844,789.357L740.299,694.357L540,810L375.173,714.837L375.173,904.837ZM141.628,350.694L141.628,770L306.173,865L306.173,445.694L141.628,350.694ZM540,350L375.455,445L375.455,635L540,730L704.545,635L704.545,445L540,350Z" style="fill:white;"/>
</svg>
